Coordinates
version=1
nRows=40
nColumns=38
inDegrees=no

Units are S.I. units (second, meters, Newtons, ...)
If the header above contains a line with 'inDegrees', this indicates whether rotational values are in degrees (yes) or radians (no).

endheader
time	pelvis_tilt	pelvis_list	pelvis_rotation	pelvis_tx	pelvis_ty	pelvis_tz	hip_flexion_r	hip_adduction_r	hip_rotation_r	knee_angle_r	ankle_angle_r	subtalar_angle_r	mtp_angle_r	hip_flexion_l	hip_adduction_l	hip_rotation_l	knee_angle_l	ankle_angle_l	subtalar_angle_l	mtp_angle_l	lumbar_extension	lumbar_bending	lumbar_rotation	arm_flex_r	arm_add_r	arm_rot_r	elbow_flex_r	pro_sup_r	wrist_flex_r	wrist_dev_r	arm_flex_l	arm_add_l	arm_rot_l	elbow_flex_l	pro_sup_l	wrist_flex_l	wrist_dev_l
0.78	-0.302777	0.00959442	-0.0535456	1.02837	0.967146	-0.358362	0.875668	0.0617027	0.139551	-1.44808	0.158233	0	0	0.613395	0.0825824	-0.0305845	-0.836627	0.459941	0	0	0.0713076	-0.000836659	0.0326848	-0.538771	-0.250096	-0.186929	1.51355	1.95497	0	0	-0.25221	-0.113375	-0.0936215	1.85359	1.83884	0	0
0.79	-0.303306	0.00938714	-0.0569017	1.02815	0.972574	-0.358341	0.889205	0.0602589	0.137316	-1.40495	0.1646	0	0	0.573486	0.0825866	-0.030259	-0.802945	0.446409	0	0	0.0736155	0.0036631	0.0208092	-0.564594	-0.255942	-0.188443	1.5386	1.94475	0	0	-0.247764	-0.107857	-0.091018	1.89033	1.82389	0	0
0.8	-0.30512	0.00891973	-0.0618981	1.02806	0.978383	-0.35819	0.899532	0.0605308	0.135504	-1.35352	0.170441	0	0	0.534793	0.0798663	-0.0341226	-0.768248	0.428095	0	0	0.0778509	0.00917981	0.0120323	-0.591377	-0.260468	-0.193104	1.56478	1.93794	0	0	-0.245281	-0.10317	-0.0876594	1.92737	1.81694	0	0
0.81	-0.308447	0.00799787	-0.0673238	1.02803	0.984454	-0.357855	0.9071	0.0615631	0.132322	-1.29406	0.174938	0	0	0.498589	0.0758559	-0.0384808	-0.734282	0.404766	0	0	0.0839908	0.0153553	0.0047534	-0.617956	-0.262988	-0.19999	1.5903	1.93045	0	0	-0.245258	-0.099774	-0.0834966	1.96451	1.81203	0	0
0.82	-0.312319	0.00670573	-0.0721205	1.02811	0.990784	-0.357307	0.910704	0.0620692	0.126309	-1.22698	0.178729	0	0	0.463595	0.0720943	-0.0402889	-0.700248	0.37454	0	0	0.0906102	0.0215913	-0.00225296	-0.643148	-0.262708	-0.209379	1.61375	1.93182	0	0	-0.247271	-0.0984076	-0.0788727	2.00076	1.81449	0	0
0.83	-0.317439	0.00495752	-0.0758811	1.02821	0.997141	-0.356578	0.912616	0.0623078	0.117742	-1.1551	0.180864	0	0	0.432865	0.0680717	-0.0410591	-0.670194	0.338757	0	0	0.0983743	0.0278647	-0.00907403	-0.666732	-0.25972	-0.220097	1.63422	1.93291	0	0	-0.250826	-0.0995066	-0.0729015	2.0349	1.81467	0	0
0.84	-0.320374	0.00281654	-0.0796749	1.0287	1.00374	-0.355817	0.9055	0.0615535	0.106259	-1.07311	0.184065	0	0	0.39776	0.0640677	-0.0426301	-0.63543	0.291621	0	0	0.103499	0.0344281	-0.0140896	-0.68922	-0.255413	-0.230719	1.65284	1.91467	0	0	-0.255119	-0.102557	-0.0645932	2.06777	1.81914	0	0
0.85	-0.320694	0.00134242	-0.0854192	1.02944	1.01025	-0.355016	0.892127	0.0623837	0.0972571	-0.987303	0.18863	0	0	0.36169	0.0594264	-0.0510115	-0.603194	0.241724	0	0	0.105179	0.0404236	-0.015348	-0.710107	-0.250195	-0.242175	1.66967	1.89837	0	0	-0.259524	-0.106879	-0.0542818	2.09786	1.8286	0	0
0.86	-0.319673	0.000233483	-0.0922756	1.03038	1.01643	-0.354224	0.872923	0.0647718	0.091176	-0.89621	0.192429	0	0	0.326869	0.0548737	-0.0624924	-0.575171	0.191272	0	0	0.105084	0.0461277	-0.0141812	-0.729633	-0.245033	-0.253272	1.68567	1.88248	0	0	-0.264782	-0.111877	-0.0421236	2.12632	1.82813	0	0
0.87	-0.31525	-0.000903941	-0.0982078	1.03149	1.02237	-0.353454	0.845407	0.0675769	0.0876053	-0.800081	0.195135	0	0	0.291632	0.0513261	-0.0717614	-0.552524	0.143305	0	0	0.100554	0.0510398	-0.0131245	-0.74612	-0.240076	-0.262876	1.70025	1.86707	0	0	-0.270364	-0.117446	-0.0299631	2.15337	1.82296	0	0
0.88	-0.31657	-0.00147402	-0.103633	1.03243	1.02718	-0.352576	0.820348	0.071247	0.0872372	-0.700272	0.193778	0	0	0.268778	0.0481001	-0.0778681	-0.539985	0.0973232	0	0	0.103683	0.0554236	-0.0115524	-0.762317	-0.234823	-0.271834	1.71314	1.85798	0	0	-0.278552	-0.123482	-0.0186147	2.17787	1.82653	0	0
0.89	-0.315318	-0.00190657	-0.105848	1.03347	1.03145	-0.351819	0.789531	0.0730523	0.0883287	-0.599563	0.191878	0	0	0.248067	0.0464395	-0.0778517	-0.535725	0.055726	0	0	0.103794	0.0584077	-0.0125554	-0.774931	-0.229609	-0.279187	1.72434	1.84912	0	0	-0.287008	-0.129975	-0.00820188	2.20005	1.82292	0	0
0.9	-0.313126	-0.00133794	-0.106075	1.03456	1.03491	-0.351206	0.757107	0.0730496	0.0924912	-0.502824	0.190777	0	0	0.231258	0.0464117	-0.0750334	-0.53951	0.0180019	0	0	0.103168	0.0596393	-0.0146584	-0.784935	-0.224461	-0.285813	1.73481	1.84153	0	0	-0.296033	-0.136565	0.00136149	2.21936	1.81718	0	0
0.91	-0.315203	-0.000751495	-0.104068	1.03543	1.03702	-0.350805	0.730291	0.0713903	0.0952263	-0.413388	0.189461	0	0	0.227809	0.0469295	-0.066327	-0.557787	-0.0183535	0	0	0.108251	0.0611435	-0.0177453	-0.794496	-0.219597	-0.292641	1.74559	1.83437	0	0	-0.306444	-0.142805	0.011901	2.23498	1.79387	0	0
0.92	-0.315977	0.00145459	-0.102087	1.03626	1.03822	-0.350462	0.706775	0.0689062	0.10363	-0.339528	0.188879	0	0	0.226897	0.0488255	-0.0596987	-0.582142	-0.0491989	0	0	0.111808	0.0605994	-0.0196993	-0.801418	-0.215222	-0.298676	1.7564	1.82978	0	0	-0.317178	-0.148631	0.0208387	2.24767	1.77843	0	0
0.93	-0.316181	0.00318845	-0.100292	1.03692	1.0385	-0.350075	0.68664	0.06678	0.111255	-0.280631	0.187014	0	0	0.231679	0.0506602	-0.0508301	-0.616885	-0.0770207	0	0	0.114291	0.060545	-0.020057	-0.805979	-0.211553	-0.30399	1.76684	1.82645	0	0	-0.327768	-0.153521	0.0292249	2.25642	1.76436	0	0
0.94	-0.316312	0.00393191	-0.0989011	1.03734	1.03781	-0.349554	0.671332	0.0661449	0.116142	-0.238819	0.18444	0	0	0.242245	0.0519589	-0.0399035	-0.661338	-0.101401	0	0	0.116104	0.0616459	-0.0186982	-0.80807	-0.208742	-0.308549	1.77664	1.82762	0	0	-0.338283	-0.157173	0.0379718	2.26094	1.72785	0	0
0.95	-0.31398	0.00323362	-0.0989736	1.0376	1.03639	-0.348834	0.657878	0.0682392	0.119494	-0.213669	0.183586	0	0	0.25399	0.0517911	-0.0302014	-0.712191	-0.122812	0	0	0.11396	0.064223	-0.0149259	-0.80662	-0.207436	-0.311841	1.78537	1.82936	0	0	-0.348193	-0.158927	0.0441883	2.26089	1.71384	0	0
0.96	-0.309637	0.00146195	-0.100202	1.03769	1.03419	-0.348018	0.646904	0.0727828	0.1234	-0.205726	0.184703	0	0	0.266121	0.0495691	-0.0245199	-0.767116	-0.140362	0	0	0.108468	0.0679536	-0.00907745	-0.801795	-0.20779	-0.313984	1.79298	1.8297	0	0	-0.357362	-0.159037	0.0481785	2.2562	1.7128	0	0
0.97	-0.305784	-0.000896166	-0.101277	1.03759	1.03099	-0.347294	0.641552	0.0787221	0.1278	-0.216227	0.18271	0	0	0.28102	0.0448476	-0.0236909	-0.825407	-0.150976	0	0	0.103064	0.072509	-0.00236661	-0.794675	-0.209541	-0.315678	1.79957	1.83129	0	0	-0.366058	-0.158304	0.0512707	2.24707	1.70571	0	0
0.98	-0.302982	-0.00283956	-0.101473	1.03743	1.02671	-0.346753	0.64231	0.0843431	0.129983	-0.244595	0.170789	0	0	0.298588	0.0376903	-0.0286819	-0.885732	-0.150522	0	0	0.0989786	0.0766177	0.00439164	-0.785638	-0.212443	-0.316633	1.80462	1.83208	0	0	-0.374521	-0.157516	0.0531704	2.23384	1.70472	0	0
0.99	-0.302809	-0.00604159	-0.101544	1.03704	1.02122	-0.346204	0.651917	0.0920142	0.131079	-0.290951	0.146734	0	0	0.322302	0.0240834	-0.0411707	-0.95091	-0.138801	0	0	0.0978063	0.0823171	0.0119829	-0.775432	-0.216491	-0.317174	1.8087	1.83142	0	0	-0.382588	-0.156684	0.0543089	2.21698	1.71804	0	0
1	-0.299001	-0.00874225	-0.101088	1.03667	1.01531	-0.345624	0.659803	0.0983899	0.128024	-0.344916	0.126452	0	0	0.34228	0.00988713	-0.0539051	-1.01435	-0.119734	0	0	0.0921972	0.0864174	0.0201501	-0.761526	-0.221422	-0.31579	1.80987	1.83177	0	0	-0.388886	-0.156416	0.0556974	2.19669	1.71891	0	0
1.01	-0.294245	-0.0126229	-0.101461	1.03581	1.00901	-0.344849	0.669152	0.107275	0.128265	-0.404373	0.123411	0	0	0.363367	-0.00770119	-0.0675169	-1.07812	-0.0995795	0	0	0.0843986	0.0912369	0.0302907	-0.743951	-0.22754	-0.312623	1.80825	1.83062	0	0	-0.393127	-0.156007	0.0567815	2.17269	1.72414	0	0
1.02	-0.288652	-0.019865	-0.103804	1.03379	1.00192	-0.343822	0.691749	0.125083	0.136509	-0.491846	0.148272	0	0	0.390893	-0.0402049	-0.0916233	-1.15199	-0.0766639	0	0	0.0721871	0.0996544	0.0429661	-0.72161	-0.235921	-0.308954	1.80469	1.82119	0	0	-0.393891	-0.15474	0.0566436	2.14298	1.75366	0	0
1.03	-0.295547	-0.0244483	-0.105758	1.03101	0.993862	-0.343158	0.724189	0.140881	0.143533	-0.57119	0.1892	0	0	0.434115	-0.0714653	-0.112378	-1.22251	-0.0612678	0	0	0.0762377	0.106752	0.0561459	-0.698957	-0.243745	-0.305035	1.79575	1.81722	0	0	-0.396605	-0.153668	0.0588904	2.10742	1.7567	0	0
1.04	-0.304017	-0.0261158	-0.106154	1.02792	0.985869	-0.343069	0.756482	0.151013	0.144834	-0.64714	0.235874	0	0	0.481077	-0.100126	-0.130524	-1.28975	-0.0460111	0	0	0.0825545	0.110889	0.0678383	-0.671363	-0.251738	-0.298832	1.77995	1.80532	0	0	-0.399086	-0.152125	0.0603388	2.06495	1.76926	0	0
1.05	-0.304771	-0.027438	-0.104532	1.02522	0.979363	-0.343342	0.770486	0.155312	0.141423	-0.705988	0.274578	0	0	0.519656	-0.116544	-0.133207	-1.34855	-0.0297264	0	0	0.0798338	0.113641	0.0774802	-0.635941	-0.260091	-0.290265	1.75639	1.80313	0	0	-0.399428	-0.149619	0.0614934	2.01509	1.77258	0	0
1.06	-0.302577	-0.0296441	-0.10153	1.02264	0.974149	-0.343608	0.774692	0.156392	0.13301	-0.754132	0.311963	0	0	0.557049	-0.130855	-0.131171	-1.40332	-0.00795219	0	0	0.0734969	0.116288	0.0842179	-0.592043	-0.269654	-0.275886	1.72325	1.7977	0	0	-0.399331	-0.145204	0.0580727	1.9562	1.81254	0	0
1.07	-0.296463	-0.0326861	-0.100061	1.02055	0.970387	-0.343437	0.764688	0.158313	0.127696	-0.785928	0.342286	0	0	0.588218	-0.13942	-0.122918	-1.44753	0.0130012	0	0	0.0627008	0.119478	0.0924258	-0.544207	-0.279504	-0.258396	1.68723	1.79738	0	0	-0.398529	-0.140688	0.05506	1.89551	1.83276	0	0
1.08	-0.290722	-0.0361116	-0.0998124	1.0188	0.967601	-0.342955	0.74868	0.161681	0.125319	-0.807456	0.368182	0	0	0.618369	-0.146243	-0.113388	-1.483	0.031737	0	0	0.052533	0.123344	0.102587	-0.496123	-0.288853	-0.239786	1.65272	1.79835	0	0	-0.398238	-0.137126	0.0536588	1.8359	1.84628	0	0
1.09	-0.285836	-0.0423058	-0.0999783	1.01717	0.966052	-0.342333	0.727595	0.167784	0.123092	-0.819876	0.396305	0	0	0.649922	-0.157566	-0.104483	-1.51381	0.0517912	0	0	0.0425149	0.130328	0.11389	-0.447371	-0.296846	-0.221698	1.61978	1.81634	0	0	-0.398128	-0.134459	0.0538649	1.7731	1.88967	0	0
1.1	-0.284344	-0.045858	-0.100636	1.01557	0.965241	-0.341819	0.705447	0.17158	0.123846	-0.823603	0.417428	0	0	0.683561	-0.165577	-0.0978426	-1.53537	0.0662151	0	0	0.0366171	0.134735	0.127727	-0.404529	-0.303015	-0.204583	1.59869	1.82551	0	0	-0.401004	-0.135895	0.0579961	1.72193	1.8977	0	0
1.11	-0.284684	-0.0471287	-0.101027	1.01397	0.96538	-0.341463	0.681469	0.172396	0.126074	-0.819955	0.432826	0	0	0.717218	-0.169911	-0.0930539	-1.54766	0.0763156	0	0	0.0329958	0.136064	0.142805	-0.367847	-0.30781	-0.18848	1.59126	1.83176	0	0	-0.408317	-0.141169	0.0606889	1.68714	1.89762	0	0
1.12	-0.285006	-0.0466697	-0.10141	1.01259	0.966774	-0.341138	0.651053	0.170869	0.130828	-0.805614	0.448399	0	0	0.74928	-0.172524	-0.0911835	-1.55264	0.0871538	0	0	0.029455	0.134125	0.157534	-0.336945	-0.310453	-0.173224	1.59878	1.85145	0	0	-0.421922	-0.149515	0.0600834	1.67208	1.87548	0	0
1.13	-0.285968	-0.0445776	-0.10096	1.01146	0.969094	-0.340994	0.621093	0.167469	0.137094	-0.789804	0.455236	0	0	0.777669	-0.170944	-0.0904466	-1.54667	0.0941888	0	0	0.0278063	0.129409	0.17246	-0.312536	-0.312554	-0.159724	1.61778	1.85476	0	0	-0.4402	-0.160079	0.054832	1.67531	1.86094	0	0
1.14	-0.287558	-0.0412015	-0.100202	1.01071	0.972415	-0.340879	0.588128	0.162738	0.145819	-0.767952	0.457423	0	0	0.803756	-0.167856	-0.092142	-1.53268	0.101852	0	0	0.0277096	0.122226	0.186146	-0.293658	-0.312643	-0.147701	1.64714	1.85497	0	0	-0.463582	-0.171797	0.0476992	1.69478	1.84636	0	0
1.15	-0.288077	-0.0373634	-0.0991808	1.01039	0.97674	-0.340774	0.551484	0.156681	0.154839	-0.741186	0.453411	0	0	0.823884	-0.166872	-0.0990793	-1.50959	0.111056	0	0	0.0271029	0.113804	0.199678	-0.278898	-0.31149	-0.137936	1.68226	1.85892	0	0	-0.488532	-0.184874	0.043501	1.72331	1.80311	0	0
1.16	-0.289177	-0.0337865	-0.0971019	1.01038	0.981818	-0.340747	0.514135	0.148609	0.159462	-0.710935	0.441745	0	0	0.841044	-0.165206	-0.107006	-1.47868	0.118689	0	0	0.0278747	0.105348	0.211549	-0.267538	-0.309821	-0.128147	1.72004	1.85862	0	0	-0.514225	-0.198101	0.0383084	1.75609	1.78656	0	0
1.17	-0.29065	-0.0307025	-0.0942627	1.01068	0.987484	-0.340768	0.47658	0.139127	0.159334	-0.678441	0.422543	0	0	0.855103	-0.162556	-0.115275	-1.44072	0.124599	0	0	0.0296297	0.0973321	0.221811	-0.259275	-0.3081	-0.117658	1.75913	1.85771	0	0	-0.539919	-0.21112	0.0317083	1.79027	1.78031	0	0
